<svg xmlns="http://www.w3.org/2000/svg" width="255" height="120" viewBox="0 0 255 120">
  <g id="Group_4" data-name="Group 4" transform="translate(-111 -600.547)">
    <path id="Path_261" data-name="Path 261" d="M0,0H255V120H0Z" transform="translate(111 600.547)" fill="#e6e6e6"/>
    <path id="Path_262" data-name="Path 262" d="M1.008,4.444v9.78H5.3a4.343,4.343,0,0,0,2.827-.7,2.649,2.649,0,0,0,.96-2.192,2.394,2.394,0,0,0-.415-1.4,3.742,3.742,0,0,0-.765-.739c.156-.233.35-.532.532-.843a2.719,2.719,0,0,0,.428-1.492A2.366,2.366,0,0,0,7.9,4.937a3.717,3.717,0,0,0-2.257-.493ZM2.954,10.19H5.288a2.788,2.788,0,0,1,1.323.195.985.985,0,0,1,.506.947.97.97,0,0,1-.311.8c-.272.233-.649.3-1.466.3H2.954Zm0-1.79V6.234H5.418a2.671,2.671,0,0,1,1.141.143.741.741,0,0,1,.35.713,1.53,1.53,0,0,1-.272.8c-.091.156-.22.363-.311.506ZM11.1,13.718a2.579,2.579,0,0,0,1.971.726,15.284,15.284,0,0,0,3.515-.545V7.375H14.692v5.1a5.763,5.763,0,0,1-1.362.169,1.02,1.02,0,0,1-.791-.246,1.877,1.877,0,0,1-.182-1.089V7.375H10.463V11.4A3.208,3.208,0,0,0,11.1,13.718Zm9.066.506V7.375H18.271v6.848Zm-1.894-9.78v2h1.894v-2Zm5.473,9.78V4.444H21.851v9.78Zm1.427-3.385A4.662,4.662,0,0,0,25.7,13.38a2.047,2.047,0,0,0,1.777,1.064,2.986,2.986,0,0,0,1.725-.571,6.833,6.833,0,0,0,.6-.428v.778h1.868V4.444H29.776V7.531a7.513,7.513,0,0,0-1.933-.376A2.246,2.246,0,0,0,25.69,8.3,4.8,4.8,0,0,0,25.171,10.838ZM27.3,9.412a.987.987,0,0,1,1.025-.532,5.585,5.585,0,0,1,1.453.324v2.5c-.156.117-.337.246-.584.415a2.4,2.4,0,0,1-1.167.519c-.415,0-.623-.1-.752-.415a3.659,3.659,0,0,1-.182-1.4A3.214,3.214,0,0,1,27.3,9.412Zm9.17-2.036v6.848h1.894v-4.8a5.3,5.3,0,0,1,1.556-.441.766.766,0,0,1,.636.182,1.783,1.783,0,0,1,.182,1.051v4.008h1.894v-4.1c0-1.388-.195-2-.61-2.425a1.96,1.96,0,0,0-1.5-.545,7.656,7.656,0,0,0-2.153.6V7.375Zm8.184,5.875a3,3,0,0,0,2.763,1.193,3.05,3.05,0,0,0,2.776-1.258,4.152,4.152,0,0,0,.6-2.374,4.255,4.255,0,0,0-.623-2.464,3.139,3.139,0,0,0-2.75-1.193,3.023,3.023,0,0,0-2.8,1.245,4.548,4.548,0,0,0-.571,2.412A4.351,4.351,0,0,0,44.653,13.251Zm1.582-3.813a1.214,1.214,0,0,1,1.18-.545,1.261,1.261,0,0,1,1.1.454,2.316,2.316,0,0,1,.35,1.427,2.385,2.385,0,0,1-.311,1.414,1.305,1.305,0,0,1-1.141.519,1.239,1.239,0,0,1-1.193-.571,2.76,2.76,0,0,1-.259-1.323A2.724,2.724,0,0,1,46.235,9.438Zm5.188-2.062,1.894,6.848h2.49l1.206-4.578,1.258,4.578h2.464l1.894-6.848H60.762l-1.323,4.942L58.064,7.375H56.027l-1.362,4.942L53.33,7.375Z" transform="translate(206.992 672.556)" fill="#8e8e8e"/>
    <path id="Path_258" data-name="Path 258" d="M31.682,16.988V17.8a2.92,2.92,0,0,1-.5,1.718,1.763,1.763,0,0,1-1.551.716H26v-.811a2.444,2.444,0,0,1,2.434-2.434Zm-9.354,3.245H19.894a1.75,1.75,0,0,1-.788-.239q-.453-.239-.453-.573V17.8q0-.334.453-.573a1.75,1.75,0,0,1,.788-.239h3.723a1.546,1.546,0,0,1,.764.215.66.66,0,0,1,.382.6,2.106,2.106,0,0,1-.836,1.837A2.777,2.777,0,0,1,22.328,20.233ZM9.682,12.12a17.5,17.5,0,0,1,1.7-3.412,3.224,3.224,0,0,1,2.887-1.5h8.78a3.224,3.224,0,0,1,2.887,1.5,17.5,17.5,0,0,1,1.7,3.412Zm8.972,7.3q0,.334-.453.573a1.75,1.75,0,0,1-.788.239H14.979a2.777,2.777,0,0,1-1.6-.6,2.106,2.106,0,0,1-.835-1.837.66.66,0,0,1,.382-.6,1.546,1.546,0,0,1,.764-.215h3.723a1.75,1.75,0,0,1,.788.239q.453.239.453.573Zm-7.349.811H7.677a3.1,3.1,0,0,1-1.957-.716A2.13,2.13,0,0,1,4.813,17.8v-.812H8.869A2.444,2.444,0,0,1,11.3,19.422ZM32.493,12.55a1.137,1.137,0,0,0,.668-.477A1.476,1.476,0,0,0,33.3,11.4a1.012,1.012,0,0,0-.239-.668.88.88,0,0,0-.716-.287h-3.1A21.03,21.03,0,0,0,26.409,6.8a5.354,5.354,0,0,0-3.842-1.217H14.74A5.354,5.354,0,0,0,10.9,6.8,21.03,21.03,0,0,0,8.059,10.45h-3.1a.88.88,0,0,0-.716.287A1.012,1.012,0,0,0,4,11.4a1.476,1.476,0,0,0,.143.668,1.137,1.137,0,0,0,.668.477l2.291.477L4,15.365V25.96a1.629,1.629,0,0,0,1.622,1.622H8.056A1.629,1.629,0,0,0,9.682,25.96v-.811H27.625v.811a1.629,1.629,0,0,0,1.622,1.622h2.434A1.629,1.629,0,0,0,33.3,25.96V15.365l-3.1-2.338Z" transform="translate(219.658 632.418)" fill="#4d4d4d"/>
  </g>
</svg>
