<svg xmlns="http://www.w3.org/2000/svg" width="255" height="120" viewBox="0 0 255 120">
  <g id="Group_5" data-name="Group 5" transform="translate(-412 -329.547)">
    <path id="Path_261" data-name="Path 261" d="M0,0H255V120H0Z" transform="translate(412 329.547)" fill="#e6e6e6"/>
    <path id="Path_249" data-name="Path 249" d="M20.567,21.413a6.593,6.593,0,0,0,4.806-1.953,6.4,6.4,0,0,0,1.98-4.738,6.426,6.426,0,0,0-1.982-4.712,6.552,6.552,0,0,0-4.806-1.978,6.552,6.552,0,0,0-4.806,1.978,6.426,6.426,0,0,0-1.982,4.712,6.4,6.4,0,0,0,1.982,4.736,6.593,6.593,0,0,0,4.808,1.956Zm12.584,8.835-7.58-7.47a9.255,9.255,0,0,1-2.352,1.05,9.787,9.787,0,0,1-6.367-.366,9.413,9.413,0,0,1-3.1-15.43,10.422,10.422,0,0,1,3.1-2.05,9.452,9.452,0,0,1,3.716-.733,9.817,9.817,0,0,1,3.765.733,10.615,10.615,0,0,1,3.047,2.051,9.39,9.39,0,0,1,2.8,6.689,9.086,9.086,0,0,1-.372,2.612A9.849,9.849,0,0,1,28.742,19.7l7.581,7.421ZM9.072,21.02a1.7,1.7,0,0,0-.545-1.294,1.818,1.818,0,0,0-1.288-.513H4.266V19.8a1.59,1.59,0,0,0,.667,1.266,2.222,2.222,0,0,0,1.412.537H9.07Zm9.166,4.1H7.834v.586a1.122,1.122,0,0,1-.347.83,1.155,1.155,0,0,1-.843.342H4.861a1.155,1.155,0,0,1-.843-.342,1.122,1.122,0,0,1-.347-.83V18.042l2.279-1.709-1.684-.342a.676.676,0,0,1-.5-.317,1.237,1.237,0,0,1-.1-.513.737.737,0,0,1,.173-.467.623.623,0,0,1,.521-.22H6.645A21.934,21.934,0,0,1,8.4,12.156a3.533,3.533,0,0,1,2.007-1.1l-.2.684-.2.684a2.979,2.979,0,0,0-1.288,1.294A14.664,14.664,0,0,0,7.83,15.7H9.812a8.265,8.265,0,0,0,.3,1.806,10.688,10.688,0,0,0,.647,1.71.984.984,0,0,0-.521.171.491.491,0,0,0-.273.415,1.575,1.575,0,0,0,.619,1.342,1.98,1.98,0,0,0,1.164.467h.545a10.812,10.812,0,0,0,2.651,2.222A10.931,10.931,0,0,0,18.238,25.121Zm6.986-.781v1.367a1.122,1.122,0,0,1-.347.83,1.155,1.155,0,0,1-.843.342H22.252a1.24,1.24,0,0,1-.866-.342,1.086,1.086,0,0,1-.372-.83v-.342a10.766,10.766,0,0,0,2.156-.317A12.752,12.752,0,0,0,25.224,24.34Z" transform="translate(519.503 359.752)" fill="#4d4d4d"/>
    <path id="Path_267" data-name="Path 267" d="M1.008,13.99H2.886v-6.4l3.82,6.4H8.762V4.422H6.884v6.4l-3.82-6.4H1.008Zm9.81-.888c.533.736,1.256,1.1,2.766,1.1a16.464,16.464,0,0,0,2.576-.254V12.379a15.867,15.867,0,0,1-2.386.228c-.736,0-1.231-.127-1.51-.52a1.1,1.1,0,0,1-.2-.685h4.3a9.313,9.313,0,0,0,.127-1.371,3.269,3.269,0,0,0-.52-2.005,2.973,2.973,0,0,0-2.551-.952,2.87,2.87,0,0,0-2.665,1.18,4.923,4.923,0,0,0-.508,2.449A3.844,3.844,0,0,0,10.818,13.1Zm1.472-4.01a1.173,1.173,0,0,1,1.129-.52,1.261,1.261,0,0,1,1.117.444,1.242,1.242,0,0,1,.19.723,2.1,2.1,0,0,1-.025.343h-2.64A2,2,0,0,1,12.29,9.092Zm4.8-1.8,1.853,6.7h2.437l1.18-4.48,1.231,4.48H26.2l1.853-6.7H26.224l-1.294,4.835L23.584,7.29H21.592l-1.332,4.835L18.952,7.29Zm15.33,5.317a3.464,3.464,0,0,0,3.325,1.6,14.829,14.829,0,0,0,3.008-.381v-1.84a14.334,14.334,0,0,1-2.678.381c-1.053,0-1.688-.2-2.03-.8a4.809,4.809,0,0,1-.368-2.259,5.329,5.329,0,0,1,.343-2.3c.33-.66.9-.964,1.992-.964a6.807,6.807,0,0,1,1.282.14c.546.1,1.028.2,1.459.3V4.65c-.419-.1-.723-.165-1.332-.279a9.181,9.181,0,0,0-1.637-.165,3.516,3.516,0,0,0-3.338,1.662,6.578,6.578,0,0,0-.7,3.477A6.16,6.16,0,0,0,32.417,12.607Zm7.132-1.815a4.68,4.68,0,0,0,.508,2.424,1.92,1.92,0,0,0,1.739.99,2.528,2.528,0,0,0,1.612-.6c.266-.19.495-.355.647-.482v.863h1.827V7.81a9.883,9.883,0,0,0-3.236-.736,2.658,2.658,0,0,0-2.563,1.155A4.953,4.953,0,0,0,39.549,10.792Zm1.878,0a3.285,3.285,0,0,1,.241-1.523,1.1,1.1,0,0,1,1.117-.546,3.945,3.945,0,0,1,1.244.266v2.373c-.19.165-.381.317-.635.508a2.424,2.424,0,0,1-1.168.584.577.577,0,0,1-.635-.406A4.131,4.131,0,0,1,41.427,10.792Zm6.1,3.2h1.853V9.841a5.107,5.107,0,0,1,.9-.47,6.615,6.615,0,0,1,1.459-.381V7.125a5.774,5.774,0,0,0-1.523.406,5.491,5.491,0,0,0-.838.52V7.29H47.531Zm14.492,0V12.15H57.315V4.422h-1.9V13.99Zm1.168-.952a2.932,2.932,0,0,0,2.7,1.168,2.984,2.984,0,0,0,2.716-1.231,4.062,4.062,0,0,0,.584-2.322,4.163,4.163,0,0,0-.609-2.411,3.071,3.071,0,0,0-2.69-1.168,2.958,2.958,0,0,0-2.741,1.218,4.45,4.45,0,0,0-.558,2.36A4.258,4.258,0,0,0,63.191,13.038Zm1.548-3.731a1.187,1.187,0,0,1,1.155-.533,1.233,1.233,0,0,1,1.079.444,2.266,2.266,0,0,1,.343,1.4,2.333,2.333,0,0,1-.3,1.383,1.277,1.277,0,0,1-1.117.508,1.212,1.212,0,0,1-1.168-.558,2.7,2.7,0,0,1-.254-1.294A2.665,2.665,0,0,1,64.739,9.308Zm6.18,3.769a2.58,2.58,0,0,0,2.513,1.129,12.953,12.953,0,0,0,2.272-.3V12.15a9.07,9.07,0,0,1-2.043.317c-.635,0-1.041-.152-1.218-.558a3.008,3.008,0,0,1-.2-1.256,2.811,2.811,0,0,1,.228-1.294c.2-.419.647-.533,1.193-.533a8.831,8.831,0,0,1,2.043.393V7.467a9.752,9.752,0,0,0-2.284-.393,2.631,2.631,0,0,0-2.487,1.168,4.372,4.372,0,0,0-.571,2.411A4.439,4.439,0,0,0,70.919,13.077Zm5.761-2.284a4.68,4.68,0,0,0,.508,2.424,1.92,1.92,0,0,0,1.739.99,2.528,2.528,0,0,0,1.612-.6c.266-.19.495-.355.647-.482v.863h1.827V7.81a9.883,9.883,0,0,0-3.236-.736,2.658,2.658,0,0,0-2.563,1.155A4.952,4.952,0,0,0,76.681,10.792Zm1.878,0A3.285,3.285,0,0,1,78.8,9.269a1.1,1.1,0,0,1,1.117-.546,3.945,3.945,0,0,1,1.244.266v2.373c-.19.165-.381.317-.635.508a2.425,2.425,0,0,1-1.168.584.577.577,0,0,1-.635-.406A4.131,4.131,0,0,1,78.559,10.792Zm6.1.33a5.1,5.1,0,0,0,.165,1.853,1.365,1.365,0,0,0,.964.812,10.54,10.54,0,0,0,2.462.292V12.417a5.951,5.951,0,0,1-1.244-.152.561.561,0,0,1-.444-.444,3.6,3.6,0,0,1-.051-.787V9.079H88.6v-1.7H86.516V5.513H84.663Zm5.292,1.916a2.932,2.932,0,0,0,2.7,1.168,2.984,2.984,0,0,0,2.716-1.231,4.062,4.062,0,0,0,.584-2.322,4.163,4.163,0,0,0-.609-2.411,3.071,3.071,0,0,0-2.69-1.168,2.958,2.958,0,0,0-2.741,1.218,4.45,4.45,0,0,0-.558,2.36A4.258,4.258,0,0,0,89.955,13.038ZM91.5,9.308a1.187,1.187,0,0,1,1.155-.533,1.233,1.233,0,0,1,1.079.444,2.266,2.266,0,0,1,.343,1.4,2.333,2.333,0,0,1-.3,1.383,1.277,1.277,0,0,1-1.117.508,1.212,1.212,0,0,1-1.168-.558,2.7,2.7,0,0,1-.254-1.294A2.665,2.665,0,0,1,91.5,9.308Zm5.85,4.683h1.853V9.841a5.107,5.107,0,0,1,.9-.47,6.615,6.615,0,0,1,1.459-.381V7.125a5.774,5.774,0,0,0-1.523.406,5.491,5.491,0,0,0-.838.52V7.29H97.353Z" transform="translate(488.213 400.794)" fill="#8e8e8e"/>
  </g>
</svg>
