<svg xmlns="http://www.w3.org/2000/svg" width="255" height="120" viewBox="0 0 255 120">
  <g id="Group_6" data-name="Group 6" transform="translate(-1014.996 -329.547)">
    <path id="Path_261" data-name="Path 261" d="M0,0H255V120H0Z" transform="translate(1014.996 329.547)" fill="#e6e6e6"/>
    <path id="Path_248" data-name="Path 248" d="M21.7,12.217a1.953,1.953,0,0,0,1.487.646,2.091,2.091,0,0,0,1.53-.646,2.02,2.02,0,0,0,.6-1.487A2.064,2.064,0,0,0,23.189,8.6a2.02,2.02,0,0,0-1.487.6,2.091,2.091,0,0,0-.646,1.53A1.953,1.953,0,0,0,21.7,12.217ZM17,5.365a2.77,2.77,0,0,1,.926-.582,2.38,2.38,0,0,1,1.1-.194l8.791.3A1.347,1.347,0,0,1,29.028,6.1l.3,8.791a2.387,2.387,0,0,1-.194,1.077,2.738,2.738,0,0,1-.582.948L16.186,29.238a1.145,1.145,0,0,1-1.637,0L4.681,19.37a1.145,1.145,0,0,1,0-1.637Z" transform="translate(1125.66 360.417)" fill="#4d4d4d"/>
    <path id="Path_266" data-name="Path 266" d="M1.428,12.685c.631.934,1.427,1.465,3.434,1.465,1.78,0,2.626-.467,3.321-1.414A5.911,5.911,0,0,0,9.067,9.2,6.051,6.051,0,0,0,8.2,5.64,3.577,3.577,0,0,0,4.863,4.2c-2.033,0-2.879.593-3.51,1.616A6.534,6.534,0,0,0,.658,9.2,6.251,6.251,0,0,0,1.428,12.685ZM3.006,6.764a1.93,1.93,0,0,1,1.856-.77,1.917,1.917,0,0,1,1.831.833A4.662,4.662,0,0,1,7.148,9.2a4.027,4.027,0,0,1-.581,2.513,1.979,1.979,0,0,1-1.7.644,1.959,1.959,0,0,1-1.856-.745A4.857,4.857,0,0,1,2.577,9.2,4.993,4.993,0,0,1,3.006,6.764Zm7.475,7.172h1.843V9.049h1.768V7.357H12.325a3.22,3.22,0,0,1,.025-.48.6.6,0,0,1,.265-.442,4.549,4.549,0,0,1,1.465-.492V4.15a7.923,7.923,0,0,0-2.715.934,1.85,1.85,0,0,0-.745.985,4.672,4.672,0,0,0-.139,1.288Zm4.432,0h1.843V9.049h1.768V7.357H16.756a3.22,3.22,0,0,1,.025-.48.6.6,0,0,1,.265-.442,4.549,4.549,0,0,1,1.465-.492V4.15a7.923,7.923,0,0,0-2.715.934,1.85,1.85,0,0,0-.745.985,4.672,4.672,0,0,0-.139,1.288Zm4.558-.884c.53.732,1.25,1.1,2.753,1.1a16.381,16.381,0,0,0,2.563-.253V12.332a15.786,15.786,0,0,1-2.374.227c-.732,0-1.225-.126-1.5-.518a1.1,1.1,0,0,1-.2-.682h4.28A9.266,9.266,0,0,0,25.115,10,3.253,3.253,0,0,0,24.6,8a2.958,2.958,0,0,0-2.538-.947,2.856,2.856,0,0,0-2.652,1.174,4.9,4.9,0,0,0-.505,2.437A3.824,3.824,0,0,0,19.471,13.052Zm1.465-3.99a1.167,1.167,0,0,1,1.124-.518,1.255,1.255,0,0,1,1.111.442,1.235,1.235,0,0,1,.189.72,2.088,2.088,0,0,1-.025.341H20.709A1.988,1.988,0,0,1,20.936,9.062Zm5.543,4.874h1.843V9.807a5.082,5.082,0,0,1,.9-.467,6.581,6.581,0,0,1,1.452-.379V7.1a5.745,5.745,0,0,0-1.515.4,5.463,5.463,0,0,0-.833.518V7.269H26.479Zm5.038-3.447a2.2,2.2,0,0,0,1.174.631l1.2.328a4.038,4.038,0,0,1,.77.24.367.367,0,0,1,.2.354.39.39,0,0,1-.177.366,1.352,1.352,0,0,1-.72.114,14.731,14.731,0,0,1-2.8-.366v1.679a18.027,18.027,0,0,0,2.6.316,3.475,3.475,0,0,0,2.361-.644,1.79,1.79,0,0,0,.593-1.477,2.028,2.028,0,0,0-.467-1.351,2.641,2.641,0,0,0-1.326-.669l-1.149-.3a3.474,3.474,0,0,1-.606-.189.332.332,0,0,1-.227-.354.376.376,0,0,1,.152-.354,1.375,1.375,0,0,1,.783-.126,12.706,12.706,0,0,1,2.551.429V7.433a13.682,13.682,0,0,0-2.588-.379,3.131,3.131,0,0,0-2.146.556,1.966,1.966,0,0,0-.606,1.553A2.029,2.029,0,0,0,31.517,10.488Zm9.318.265a4.657,4.657,0,0,0,.505,2.412,1.91,1.91,0,0,0,1.73.985,2.516,2.516,0,0,0,1.6-.593c.265-.189.492-.354.644-.48v.859h1.818V7.786a9.833,9.833,0,0,0-3.22-.732A2.645,2.645,0,0,0,41.365,8.2,4.928,4.928,0,0,0,40.835,10.754Zm1.869,0a3.269,3.269,0,0,1,.24-1.515A1.1,1.1,0,0,1,44.054,8.7a3.925,3.925,0,0,1,1.237.265v2.361c-.189.164-.379.316-.631.505a2.412,2.412,0,0,1-1.162.581.574.574,0,0,1-.631-.4A4.11,4.11,0,0,1,42.7,10.754Zm6.073-3.485v6.667H50.62V9.264a5.155,5.155,0,0,1,1.515-.429.746.746,0,0,1,.619.177,1.736,1.736,0,0,1,.177,1.023v3.9h1.843V9.945c0-1.351-.189-1.944-.593-2.361a1.908,1.908,0,0,0-1.465-.53,7.453,7.453,0,0,0-2.1.581V7.269ZM56.15,10.64a4.538,4.538,0,0,0,.518,2.475A1.993,1.993,0,0,0,58.4,14.15a2.907,2.907,0,0,0,1.679-.556,6.653,6.653,0,0,0,.581-.417v.758h1.818V4.415H60.633V7.42a7.314,7.314,0,0,0-1.881-.366,2.186,2.186,0,0,0-2.1,1.111A4.675,4.675,0,0,0,56.15,10.64Zm2.071-1.389a.961.961,0,0,1,1-.518,5.437,5.437,0,0,1,1.414.316v2.437c-.152.114-.328.24-.568.4a2.334,2.334,0,0,1-1.136.505c-.4,0-.606-.1-.732-.4a3.562,3.562,0,0,1-.177-1.364A3.129,3.129,0,0,1,58.221,9.251Zm9.015,4.684H69.13V10.084H73.4V8.3H69.13V6.2h4.747V4.415H67.236Zm9.6,0V7.269H74.989v6.667Zm-1.843-9.52V6.36h1.843V4.415Zm3.485,2.854v6.667h1.843V9.264a5.155,5.155,0,0,1,1.515-.429.746.746,0,0,1,.619.177,1.736,1.736,0,0,1,.177,1.023v3.9h1.843V9.945c0-1.351-.189-1.944-.593-2.361a1.908,1.908,0,0,0-1.465-.53,7.453,7.453,0,0,0-2.1.581V7.269Zm7.374,3.485a4.657,4.657,0,0,0,.505,2.412,1.91,1.91,0,0,0,1.73.985,2.516,2.516,0,0,0,1.6-.593c.265-.189.492-.354.644-.48v.859h1.818V7.786a9.833,9.833,0,0,0-3.22-.732A2.645,2.645,0,0,0,86.378,8.2,4.927,4.927,0,0,0,85.847,10.754Zm1.869,0a3.269,3.269,0,0,1,.24-1.515A1.1,1.1,0,0,1,89.067,8.7a3.925,3.925,0,0,1,1.237.265v2.361c-.189.164-.379.316-.631.505a2.412,2.412,0,0,1-1.162.581.574.574,0,0,1-.631-.4A4.11,4.11,0,0,1,87.716,10.754Zm6.073-3.485v6.667h1.843V9.264a5.155,5.155,0,0,1,1.515-.429.746.746,0,0,1,.619.177,1.736,1.736,0,0,1,.177,1.023v3.9h1.843V9.945c0-1.351-.189-1.944-.593-2.361a1.908,1.908,0,0,0-1.465-.53,7.453,7.453,0,0,0-2.1.581V7.269Zm7.955,5.758a2.567,2.567,0,0,0,2.5,1.124,12.888,12.888,0,0,0,2.26-.3V12.1a9.024,9.024,0,0,1-2.033.316c-.631,0-1.035-.152-1.212-.556a2.993,2.993,0,0,1-.2-1.25,2.8,2.8,0,0,1,.227-1.288c.2-.417.644-.53,1.187-.53a8.787,8.787,0,0,1,2.033.391V7.445a9.7,9.7,0,0,0-2.273-.391,2.618,2.618,0,0,0-2.475,1.162,4.35,4.35,0,0,0-.568,2.4A4.417,4.417,0,0,0,101.744,13.026Zm6.3.025c.53.732,1.25,1.1,2.753,1.1a16.381,16.381,0,0,0,2.563-.253V12.332a15.786,15.786,0,0,1-2.374.227c-.732,0-1.225-.126-1.5-.518a1.1,1.1,0,0,1-.2-.682h4.28A9.266,9.266,0,0,0,113.688,10,3.253,3.253,0,0,0,113.171,8a2.958,2.958,0,0,0-2.538-.947,2.856,2.856,0,0,0-2.652,1.174,4.9,4.9,0,0,0-.505,2.437A3.824,3.824,0,0,0,108.044,13.052Zm1.465-3.99a1.167,1.167,0,0,1,1.124-.518,1.255,1.255,0,0,1,1.111.442,1.236,1.236,0,0,1,.189.72,2.088,2.088,0,0,1-.025.341h-2.626A1.988,1.988,0,0,1,109.509,9.062Z" transform="translate(1085.323 400.85)" fill="#8e8e8e"/>
  </g>
</svg>
