<svg viewBox="0 0 32 32" fill="none" xmlns="http://www.w3.org/2000/svg" aria-hidden="true">
    <path fill-rule="evenodd" clip-rule="evenodd" d="M6.52248 17.4634V24.8695H7.16648V17.4634H6.52248Z" fill="currentColor"></path>
    <path fill-rule="evenodd" clip-rule="evenodd" d="M4.91256 11.3197H3.94656V10.7272H4.91256C5.09937 10.7272 5.34016 10.8077 5.53244 11.0153C5.72882 11.2274 5.85281 11.5473 5.85281 11.9894H5.26032C5.26032 11.6588 5.16965 11.4956 5.09769 11.4179C5.02164 11.3357 4.94043 11.3197 4.91256 11.3197Z" fill="currentColor"></path>
    <path fill-rule="evenodd" clip-rule="evenodd" d="M1.69 9.43916H3.55402C3.91016 9.43916 4.2428 9.71505 4.2428 10.0985V11.3197H2.09428C1.84351 11.3197 1.60848 11.1855 1.48689 10.9708L1.48452 10.9666L1.00003 10.0775L1.69 9.43916ZM1.92202 10.0316L1.74105 10.1991L2.00317 10.6801C2.01702 10.7033 2.0514 10.7272 2.09428 10.7272H3.65032V10.0985C3.65032 10.0905 3.647 10.076 3.62962 10.06C3.61204 10.0437 3.58539 10.0316 3.55402 10.0316H1.92202Z" fill="currentColor"></path>
    <path fill-rule="evenodd" clip-rule="evenodd" d="M1.67042 9.38916H3.55402C3.93354 9.38916 4.2928 9.68338 4.2928 10.0985V10.6772H4.91256C5.11277 10.6772 5.36703 10.7631 5.56912 10.9814C5.77603 11.2048 5.90281 11.5379 5.90281 11.9894V12.0394H5.21033V11.9894C5.21033 11.6682 5.12249 11.5182 5.06101 11.4518C4.99473 11.3803 4.92698 11.3696 4.91256 11.3696L2.09428 11.3697C1.82605 11.3697 1.57412 11.2263 1.44338 10.9954L1.44101 10.9912L0.9375 10.0672L1.67042 9.38916ZM4.2928 11.2696H4.91256C4.95388 11.2696 5.04854 11.2912 5.13438 11.3839C5.21266 11.4685 5.30096 11.6318 5.30963 11.9394H5.80226C5.79327 11.5329 5.67437 11.2422 5.49575 11.0493C5.31329 10.8523 5.08596 10.7772 4.91256 10.7772H4.2928V11.2696ZM4.1928 10.7772V11.2696H3.99656V10.7772H4.1928ZM4.1928 10.6772H3.89656V11.2697H2.09428C1.86096 11.2697 1.64284 11.1447 1.5304 10.9461L1.52823 10.9423L1.06257 10.0877L1.70958 9.48916H3.55402C3.88679 9.48916 4.1928 9.74672 4.1928 10.0985V10.6772ZM1.90244 9.98165H3.55402C3.59818 9.98165 3.6369 9.99859 3.66357 10.0233C3.69047 10.0481 3.70032 10.0756 3.70032 10.0985V10.7772H2.09428C2.03392 10.7772 1.98316 10.7441 1.96024 10.7057L1.95924 10.704L1.67852 10.1888L1.90244 9.98165ZM1.94161 10.0816L1.80359 10.2093L2.04645 10.655C2.04855 10.6582 2.05371 10.6639 2.06246 10.6688C2.0713 10.6738 2.0822 10.6772 2.09428 10.6772H3.60032V10.1019C3.60032 10.1019 3.59784 10.0987 3.59566 10.0967C3.58718 10.0888 3.5726 10.0816 3.55402 10.0816H1.94161ZM6.47248 17.4134H7.21648V24.9195H6.47248V17.4134ZM6.57248 17.5134V24.8195H7.11648V17.5134H6.57248Z" fill="currentColor"></path>
    <path d="M7.40982 9.96759L6.79319 10.7898V11.7913L6.60876 12.3973L6.84481 12.6334L9.65028 12.8993L9.50028 13.5L6.56012 13.1866L5.48131 12.1078L5.31064 12.2215L6.24552 14.7146L4.81459 16.1455L4.52054 17.6158L4.24932 18.4294L5.60832 22.5064V16.3563L7.23614 17.4415L9.03003 16.9776L9.20028 17.6L7.16681 18.1074L6.20081 17.4634V23.2594H5.2348L3.62479 18.4294L3.94679 17.4634L4.26879 15.8534L5.5568 14.5654L4.5908 11.9894L5.5568 11.3454L6.13395 11.9225L6.20071 11.7032V10.5923L7.16672 9.30426H10.3L10.5464 9.96759H7.40982Z" fill="currentColor"></path>
    <path fill-rule="evenodd" clip-rule="evenodd" d="M7.14172 9.25426H10.3348L10.6183 10.0176H7.43482L6.84319 10.8064V11.7988L6.66533 12.3832L6.86744 12.5853L9.71288 12.8551L9.53825 13.5543L6.53725 13.2344L5.47494 12.1721L5.37139 12.2411L6.30364 14.7272L4.86065 16.1701L4.56834 17.6317L4.30203 18.4294L5.55832 22.1983V16.2629L7.24527 17.3875L9.06525 16.9169L9.262 17.6361L7.15747 18.1613L6.25081 17.5568V23.3094H5.19876L3.57209 18.4294L3.89837 17.4505L4.22273 15.8287L5.49868 14.5528L4.53005 11.9698L5.56317 11.281L6.11038 11.8282L6.15071 11.6957V10.5756L7.14172 9.25426ZM7.19172 9.35426L6.25071 10.6089V11.7106L6.15752 12.0168L5.55043 11.4097L4.65154 12.009L5.61492 14.578L4.31485 15.878L3.9946 17.4793L3.6775 18.4294L5.27084 23.2094H6.15081V17.37L7.17615 18.0535L9.13856 17.5639L8.99481 17.0384L7.22701 17.4956L5.65832 16.4498V22.5064L5.56089 22.5222L4.19662 18.4294L4.47212 17.6029L4.76853 16.1208L6.1874 14.702L5.24989 12.202L5.48768 12.0434L6.58298 13.1387L9.46231 13.4457L9.58768 12.9436L6.82218 12.6814L6.55219 12.4115L6.74319 11.7839V10.7731L7.38482 9.91759H10.4745L10.2653 9.35426H7.19172Z" fill="currentColor"></path>
    <path d="M8.77652 19.0218C8.3924 19.0218 8.081 19.3332 8.081 19.7174V26.0161C8.081 26.4002 8.3924 26.7116 8.77652 26.7116V27.3041C8.06518 27.3041 7.48851 26.7274 7.48851 26.0161V19.7174C7.48851 19.006 8.06518 18.4293 8.77652 18.4293V19.0218Z" fill="currentColor"></path>
    <path fill-rule="evenodd" clip-rule="evenodd" d="M8.72652 18.4803C8.06597 18.5066 7.53851 19.0504 7.53851 19.7174V26.0161C7.53851 26.6831 8.06597 27.2268 8.72652 27.2531V26.7599C8.33809 26.7342 8.031 26.411 8.031 26.0161V19.7174C8.031 19.3224 8.33809 18.9992 8.72652 18.9735V18.4803ZM7.43851 19.7174C7.43851 18.9784 8.03756 18.3793 8.77652 18.3793H8.82652V19.0718H8.77652C8.42001 19.0718 8.131 19.3608 8.131 19.7174V26.0161C8.131 26.3726 8.42001 26.6616 8.77652 26.6616H8.82652V27.3541H8.77652C8.03756 27.3541 7.43851 26.755 7.43851 26.0161V19.7174Z" fill="currentColor"></path>
    <path d="M8.78874 19.0218C9.17287 19.0218 9.48426 19.3332 9.48426 19.7173V26.016C9.48426 26.4002 9.17287 26.7116 8.78874 26.7116V27.304C9.50008 27.304 10.0767 26.7274 10.0767 26.016V19.7173C10.0767 19.006 9.50008 18.4293 8.78874 18.4293V19.0218Z" fill="currentColor"></path>
    <path fill-rule="evenodd" clip-rule="evenodd" d="M8.83874 18.4803C9.49929 18.5065 10.0267 19.0503 10.0267 19.7173V26.016C10.0267 26.683 9.49929 27.2268 8.83874 27.2531V26.7599C9.22717 26.7342 9.53426 26.411 9.53426 26.016V19.7173C9.53426 19.3224 9.22717 18.9992 8.83874 18.9735V18.4803ZM10.1267 19.7173C10.1267 18.9784 9.5277 18.3793 8.78874 18.3793H8.73874V19.0718H8.78874C9.14525 19.0718 9.43426 19.3608 9.43426 19.7173V26.016C9.43426 26.3726 9.14525 26.6616 8.78874 26.6616H8.73874V27.354H8.78874C9.5277 27.354 10.1267 26.755 10.1267 26.016V19.7173Z" fill="currentColor"></path>
    <path fill-rule="evenodd" clip-rule="evenodd" d="M25.4778 17.4634V24.8695H24.8338V17.4634H25.4778Z" fill="currentColor"></path>
    <path fill-rule="evenodd" clip-rule="evenodd" d="M27.0877 11.3197H28.0537V10.7272H27.0877C26.9009 10.7272 26.6601 10.8077 26.4678 11.0153C26.2714 11.2274 26.1475 11.5473 26.1475 11.9894H26.7399C26.7399 11.6588 26.8306 11.4956 26.9026 11.4179C26.9786 11.3357 27.0598 11.3197 27.0877 11.3197Z" fill="currentColor"></path>
    <path fill-rule="evenodd" clip-rule="evenodd" d="M30.3103 9.43916H28.4462C28.0901 9.43916 27.7575 9.71505 27.7575 10.0985V11.3197H29.906C30.1568 11.3197 30.3918 11.1855 30.5134 10.9708L30.5157 10.9666L31.0002 10.0775L30.3103 9.43916ZM30.0782 10.0316L30.2592 10.1991L29.9971 10.6801C29.9833 10.7033 29.9489 10.7272 29.906 10.7272H28.35V10.0985C28.35 10.0905 28.3533 10.076 28.3707 10.06C28.3882 10.0437 28.4149 10.0316 28.4462 10.0316H30.0782Z" fill="currentColor"></path>
    <path fill-rule="evenodd" clip-rule="evenodd" d="M30.3299 9.38916H28.4462C28.0667 9.38916 27.7075 9.68338 27.7075 10.0985V10.6772H27.0877C26.8875 10.6772 26.6332 10.7631 26.4311 10.9814C26.2242 11.2048 26.0975 11.5379 26.0975 11.9894V12.0394H26.7899V11.9894C26.7899 11.6682 26.8778 11.5182 26.9393 11.4518C27.0055 11.3803 27.0733 11.3696 27.0877 11.3696L29.906 11.3697C30.1742 11.3697 30.4262 11.2263 30.5569 10.9954L30.5593 10.9912L31.0628 10.0672L30.3299 9.38916ZM27.7075 11.2696H27.0877C27.0464 11.2696 26.9517 11.2912 26.8659 11.3839C26.7876 11.4685 26.6993 11.6318 26.6906 11.9394H26.198C26.207 11.5329 26.3259 11.2422 26.5045 11.0493C26.687 10.8523 26.9143 10.7772 27.0877 10.7772H27.7075V11.2696ZM27.8075 10.7772V11.2696H28.0037V10.7772H27.8075ZM27.8075 10.6772H28.1037V11.2697H29.906C30.1393 11.2697 30.3574 11.1447 30.4699 10.9461L30.472 10.9423L30.9377 10.0877L30.2907 9.48916H28.4462C28.1135 9.48916 27.8075 9.74672 27.8075 10.0985V10.6772ZM30.0978 9.98165H28.4462C28.4021 9.98165 28.3634 9.99859 28.3367 10.0233C28.3098 10.0481 28.3 10.0756 28.3 10.0985V10.7772H29.906C29.9663 10.7772 30.0171 10.7441 30.04 10.7057L30.041 10.704L30.3218 10.1888L30.0978 9.98165ZM30.0587 10.0816L30.1967 10.2093L29.9538 10.655C29.9517 10.6582 29.9466 10.6639 29.9378 10.6688C29.929 10.6738 29.9181 10.6772 29.906 10.6772H28.4V10.1019C28.4 10.1019 28.4024 10.0987 28.4046 10.0967C28.4131 10.0888 28.4277 10.0816 28.4462 10.0816H30.0587ZM25.5278 17.4134H24.7838V24.9195H25.5278V17.4134ZM25.4278 17.5134V24.8195H24.8838V17.5134H25.4278Z" fill="currentColor"></path>
    <path d="M24.5904 9.96759L25.2071 10.7898V11.7913L25.3915 12.3973L25.1555 12.6334L22.35 12.8993L22.5 13.5L25.4401 13.1866L26.519 12.1078L26.6896 12.2215L25.7547 14.7146L27.1857 16.1455L27.4797 17.6158L27.7509 18.4294L26.3919 22.5064V16.3563L24.7641 17.4415L22.9702 16.9776L22.8 17.6L24.8335 18.1074L25.7995 17.4634V23.2594H26.7655L28.3755 18.4294L28.0535 17.4634L27.7315 15.8534L26.4435 14.5654L27.4095 11.9894L26.4435 11.3454L25.8663 11.9225L25.7996 11.7032V10.5923L24.8336 9.30426H21.7002L21.4538 9.96759H24.5904Z" fill="currentColor"></path>
    <path fill-rule="evenodd" clip-rule="evenodd" d="M24.8586 9.25426H21.6655L21.3819 10.0176H24.5654L25.1571 10.8064V11.7988L25.3349 12.3832L25.1328 12.5853L22.2874 12.8551L22.462 13.5543L25.463 13.2344L26.5253 12.1721L26.6289 12.2411L25.6966 14.7272L27.1396 16.1701L27.4319 17.6317L27.6982 18.4294L26.4419 22.1983V16.2629L24.755 17.3875L22.935 16.9169L22.7383 17.6361L24.8428 18.1613L25.7495 17.5568V23.3094H26.8015L28.4282 18.4294L28.1019 17.4505L27.7775 15.8287L26.5016 14.5528L27.4702 11.9698L26.4371 11.281L25.8899 11.8282L25.8496 11.6957V10.5756L24.8586 9.25426ZM24.8086 9.35426L25.7496 10.6089V11.7106L25.8427 12.0168L26.4498 11.4097L27.3487 12.009L26.3853 14.578L27.6854 15.878L28.0057 17.4793L28.3228 18.4294L26.7294 23.2094H25.8495V17.37L24.8241 18.0535L22.8617 17.5639L23.0055 17.0384L24.7733 17.4956L26.3419 16.4498V22.5064L26.4394 22.5222L27.8036 18.4294L27.5282 17.6029L27.2317 16.1208L25.8129 14.702L26.7504 12.202L26.5126 12.0434L25.4173 13.1387L22.538 13.4457L22.4126 12.9436L25.1781 12.6814L25.4481 12.4115L25.2571 11.7839V10.7731L24.6154 9.91759H21.5258L21.735 9.35426H24.8086Z" fill="currentColor"></path>
    <path d="M23.2237 19.0218C23.6079 19.0218 23.9193 19.3332 23.9193 19.7174V26.0161C23.9193 26.4002 23.6079 26.7116 23.2237 26.7116V27.3041C23.9351 27.3041 24.5118 26.7274 24.5118 26.0161V19.7174C24.5118 19.006 23.9351 18.4293 23.2237 18.4293V19.0218Z" fill="currentColor"></path>
    <path fill-rule="evenodd" clip-rule="evenodd" d="M23.2737 18.4803C23.9343 18.5066 24.4618 19.0504 24.4618 19.7174V26.0161C24.4618 26.6831 23.9343 27.2268 23.2737 27.2531V26.7599C23.6622 26.7342 23.9693 26.411 23.9693 26.0161V19.7174C23.9693 19.3224 23.6622 18.9992 23.2737 18.9735V18.4803ZM24.5618 19.7174C24.5618 18.9784 23.9627 18.3793 23.2237 18.3793H23.1737V19.0718H23.2237C23.5803 19.0718 23.8693 19.3608 23.8693 19.7174V26.0161C23.8693 26.3726 23.5803 26.6616 23.2237 26.6616H23.1737V27.3541H23.2237C23.9627 27.3541 24.5618 26.755 24.5618 26.0161V19.7174Z" fill="currentColor"></path>
    <path d="M23.2115 19.0218C22.8274 19.0218 22.516 19.3332 22.516 19.7173V26.016C22.516 26.4002 22.8274 26.7116 23.2115 26.7116V27.304C22.5002 27.304 21.9235 26.7274 21.9235 26.016V19.7173C21.9235 19.006 22.5002 18.4293 23.2115 18.4293V19.0218Z" fill="currentColor"></path>
    <path fill-rule="evenodd" clip-rule="evenodd" d="M23.1615 18.4803C22.501 18.5065 21.9735 19.0503 21.9735 19.7173V26.016C21.9735 26.683 22.501 27.2268 23.1615 27.2531V26.7599C22.7731 26.7342 22.466 26.411 22.466 26.016V19.7173C22.466 19.3224 22.7731 18.9992 23.1615 18.9735V18.4803ZM21.8735 19.7173C21.8735 18.9784 22.4726 18.3793 23.2115 18.3793H23.2615V19.0718H23.2115C22.855 19.0718 22.566 19.3608 22.566 19.7173V26.016C22.566 26.3726 22.855 26.6616 23.2115 26.6616H23.2615V27.354H23.2115C22.4726 27.354 21.8735 26.755 21.8735 26.016V19.7173Z" fill="currentColor"></path>
    <path fill-rule="evenodd" clip-rule="evenodd" d="M16.0001 5.18577L14.339 4.8061L13.5897 5.80522V8.23757L13.3656 8.97398L13.6524 9.26084L16.0003 9.65214L18.3481 9.26084L18.6348 8.97416L18.4106 8.23757V5.80522L17.6612 4.8061L16.0001 5.18577ZM18.694 9.93311L16.0003 10.3821L13.3065 9.93311L11.9955 8.62211L11.7881 8.76038L12.9242 11.79L11.1853 13.5288L10.8279 15.3156L10.4983 16.3043L12.1498 21.2588V13.7851L14.128 15.1038L16.0003 14.3549L17.8725 15.1038L19.8507 13.7851V21.2588L21.5022 16.3043L21.1726 15.3156L20.8152 13.5288L19.0764 11.79L20.2124 8.76038L20.005 8.62211L18.694 9.93311ZM19.9133 7.69562L21.0872 8.47823L19.9133 11.6087L21.4785 13.1739L21.8698 15.1304L22.2611 16.3043L20.3046 22.1739H19.1307V15.1304L17.9568 15.913L16.0003 15.1304L14.0437 15.913L12.8698 15.1304V22.1739H11.6959L9.73938 16.3043L10.1307 15.1304L10.522 13.1739L12.0872 11.6087L10.9133 8.47823L12.0872 7.69562L12.7886 8.39699L12.8697 8.13043V5.56522L14.0436 4L16.0001 4.4472L17.9567 4L19.1306 5.56522V8.13043L19.2117 8.39716L19.9133 7.69562Z" fill="currentColor"></path>
    <path fill-rule="evenodd" clip-rule="evenodd" d="M16.8453 26.7391V17.8695C16.8453 17.4027 16.4669 17.0243 16 17.0243C15.5332 17.0243 15.1548 17.4027 15.1548 17.8695V26.7391C15.1548 27.2059 15.5332 27.5843 16 27.5843C16.4669 27.5843 16.8453 27.2059 16.8453 26.7391ZM16 16.3043C15.1356 16.3043 14.4348 17.0051 14.4348 17.8695V26.7391C14.4348 27.6035 15.1356 28.3043 16 28.3043C16.8645 28.3043 17.5653 27.6035 17.5653 26.7391V17.8695C17.5653 17.0051 16.8645 16.3043 16 16.3043Z" fill="currentColor"></path>
    <path fill-rule="evenodd" clip-rule="evenodd" d="M13.2609 15.1304V24.1304H14.0435V15.1304H13.2609Z" fill="currentColor"></path>
    <path fill-rule="evenodd" clip-rule="evenodd" d="M17.9565 15.1304V24.1304H18.7391V15.1304H17.9565Z" fill="currentColor"></path>
    <path fill-rule="evenodd" clip-rule="evenodd" d="M17.329 11.9374H14.6713L14.52 12.3913L14.6713 12.8452H17.329L17.4803 12.3913L17.329 11.9374ZM18.2393 12.3913L17.848 11.2174H14.1523L13.761 12.3913L14.1523 13.5652H17.848L18.2393 12.3913Z" fill="currentColor"></path>
    <path fill-rule="evenodd" clip-rule="evenodd" d="M11.3045 7.66434H10.1306V6.94433H11.3045C11.5315 6.94433 11.8241 7.04218 12.0578 7.29453C12.2964 7.55227 12.4471 7.94093 12.4471 8.47825H11.7271C11.7271 8.07643 11.6169 7.87813 11.5295 7.7837C11.437 7.68388 11.3383 7.66434 11.3045 7.66434Z" fill="currentColor"></path>
    <path fill-rule="evenodd" clip-rule="evenodd" d="M7.38835 5.37912H9.65355C10.0863 5.37912 10.4906 5.71439 10.4906 6.18042V7.66434H7.87964C7.57489 7.66434 7.28928 7.50134 7.14152 7.24038L7.13864 7.23529L6.54988 6.15479L7.38835 5.37912ZM7.67031 6.09912L7.45039 6.30258L7.76892 6.88711C7.78574 6.9153 7.82753 6.94434 7.87964 6.94434H9.77057V6.18042C9.77057 6.17065 9.76653 6.15307 9.74541 6.13353C9.72406 6.11377 9.69167 6.09912 9.65355 6.09912H7.67031Z" fill="currentColor"></path>
    <path fill-rule="evenodd" clip-rule="evenodd" d="M20.6958 7.66434H21.8697V6.94433H20.6958C20.4688 6.94433 20.1762 7.04218 19.9425 7.29453C19.7039 7.55227 19.5532 7.94093 19.5532 8.47825H20.2732C20.2732 8.07643 20.3834 7.87813 20.4708 7.7837C20.5632 7.68388 20.6619 7.66434 20.6958 7.66434Z" fill="currentColor"></path>
    <path fill-rule="evenodd" clip-rule="evenodd" d="M24.6119 5.37912H22.3467C21.9139 5.37912 21.5097 5.71439 21.5097 6.18042V7.66434H24.1206C24.4254 7.66434 24.711 7.50134 24.8587 7.24038L24.8616 7.23529L25.4504 6.15479L24.6119 5.37912ZM24.33 6.09912L24.5499 6.30258L24.2313 6.88711C24.2145 6.9153 24.1727 6.94434 24.1206 6.94434H22.2297V6.18042C22.2297 6.17065 22.2337 6.15307 22.2549 6.13353C22.2762 6.11377 22.3086 6.09912 22.3467 6.09912H24.33Z" fill="currentColor"></path>
</svg>
